<svg width="1974" height="772" viewBox="0 0 1974 772" fill="none" xmlns="http://www.w3.org/2000/svg">
<path d="M1955.95 600.871C1869.65 492.85 1634.04 368.148 1377.91 330C1204.91 304.244 1065.28 337.29 986.6 380.406C907.923 423.521 890.772 487.793 901.248 555.136C906.135 586.403 917.25 619.486 954.791 653.671C992.331 687.856 1010.7 723.881 1091.2 742.5C1189.71 765.258 1355.5 728 1416 684.5C1476.5 641 1459.53 620.279 1459 583C1457.91 501.569 1363.2 418 1266.2 369.974C1169.21 321.948 891.663 193.813 696.386 190.844C566.13 188.874 482.957 222.761 438.775 265.763C385.944 317.136 379.256 382.942 419.868 453.746C449.26 505.053 546.321 575.745 666.734 586.533C755.633 594.51 793.272 562.691 808.355 531.423C836.849 472.377 832.994 405.092 797.013 334.072C761.701 264.334 669.415 177.535 501.139 133.151C309.616 82.6424 146.301 120.434 81.5317 176.857C12.0075 237.406 3.89286 317.806 58.6569 404.187C79.5669 437.202 124.031 478.329 203.43 496.949C310.316 522.003 368.675 483.486 382.974 446.259C406.409 385.07 404.429 317.663 377.155 246.849C362.12 207.768 338.499 166.713 285.871 125.699C233.243 84.6846 147.147 43.4732 49.9893 22.0033" stroke="url(#paint0_linear_316_170)" stroke-opacity="0.6" stroke-width="44"/>
<defs>
<linearGradient id="paint0_linear_316_170" x1="2352.74" y1="557.723" x2="1542.78" y2="1698.93" gradientUnits="userSpaceOnUse">
<stop stop-color="#7EA8FC"/>
<stop offset="0.446798" stop-color="#DFEFF3"/>
</linearGradient>
</defs>
</svg>
