<svg width="45" height="50" viewBox="0 0 45 50" fill="none" xmlns="http://www.w3.org/2000/svg">
<path d="M11.5168 1.68844L0 5.74069L0.652619 29.9041C5.36992 41.015 10.0429 45.4548 22.9952 49.3023C35.8733 45.3445 39.8395 41.9973 43.6487 34.8943C31.3316 47.3913 14.2926 42.6059 12.3998 28.4783C10.507 14.3506 12.8973 1.67668 11.5168 1.68844Z" fill="white"/>
<path d="M14.8951 0.900499L26.1432 0C26.1432 0 25.2658 21.4193 26.1432 26.3021C27.0205 31.1849 32.5397 30.7566 32.9381 26.3021V1.68844L44.6693 5.73521C44.6744 5.73607 44.6797 5.73789 44.6852 5.74069L44.6693 5.73521C44.2286 5.66147 45.2209 12.8591 44.6852 27.7279C44.1433 42.7685 16.7517 42.2026 14.8951 28.4783V0.900499Z" fill="white"/>
</svg>
