<svg width="223" height="37" viewBox="0 0 223 37" fill="none" xmlns="http://www.w3.org/2000/svg">
<path d="M21.0824 26.6234V21.4351L21.119 20.7866H10.5412C7.29015 18.9974 5.96836 17.6514 5.92941 13.6527C6.17585 8.31768 9.22353 5.2218 13.8353 5.22174C18.4471 5.22168 21.7412 9.11302 21.7412 9.76149C21.7412 10.41 21.119 20.7866 21.119 20.7866L21.0824 21.4351H27.0118V0.0334598H21.7412V2.6276C19.3569 0.713021 17.6215 0.0178436 13.1765 0.0334598C5.7064 1.13963 0 7.81589 0 13.6527C0 19.4895 3.97947 23.433 10.5412 26.6234H21.0824Z" fill="black"/>
<path d="M148.235 26.6235H153.506V10.4101C155.939 6.91556 157.565 5.54416 161.412 5.2218C165.208 5.91719 166.99 6.96055 169.318 10.4101V26.6235H175.247V11.0586C177.315 7.3595 179.118 5.9988 183.812 5.2218C187.545 6.01961 189 7.69511 191.059 11.7072V26.6235H196.988C196.988 26.6235 196.329 13.0042 196.329 11.7072C196.329 10.4101 191.668 0.921504 183.812 0.0335198C178.483 0.163307 176.203 1.64171 172.612 5.2218C168.876 1.62994 166.488 0.332807 161.412 0.0335198C151.18 1.35183 148.894 7.16741 148.235 9.11302C147.576 11.0586 148.235 26.6235 148.235 26.6235Z" fill="black"/>
<path d="M199.624 0.0335198H204.894V12.3557C204.894 13.0042 207.529 17.544 210.165 17.544H217.412V0.0335198L222.682 0.0335198L222.024 28.5691L215.435 36.3515L209.506 37V31.8118H212.8L217.412 27.9206V22.0837H209.506C203.469 20.1181 201.681 17.8564 199.624 13.0042V0.0335198Z" fill="black"/>
</svg>
