<svg width="224" height="97" viewBox="0 0 224 97" fill="none" xmlns="http://www.w3.org/2000/svg">
<path d="M14.4941 0H1.31761L0.658788 66.1506C7.24604 87.7235 15.6726 93.3236 35.5764 96.6318V83.0126C26.3563 82.2672 21.6776 79.1982 14.4941 67.4477V0Z" fill="black"/>
<path d="M106.071 27.2385H91.5764L90.876 33.8963C83.5728 28.9968 78.5855 27.7291 69.1764 27.2385C47.104 31.5235 41.9264 39.8486 35.5764 57.0711C37.4839 83.5681 45.465 91.2906 67.8588 96.6318H91.5764V83.0126H65.8823C54.7451 77.9313 50.8629 73.2817 50.0706 60.3138C52.3438 47.5724 57.088 44.0386 69.1764 41.5063C81.3009 41.8504 85.9212 45.2508 91.5764 55.1255V83.0126H106.071V27.2385Z" fill="black"/>
<path fill-rule="evenodd" clip-rule="evenodd" d="M182.494 0V82.364H168V95.3347H140.988C121.529 89.3089 114.896 82.1636 112 61.6109C117.334 35.7569 126.527 31.1622 145.6 27.2385C155.034 27.0844 159.875 28.7987 168 33.8963L168.659 0H182.494ZM142.965 81.7155H167.341H168V59.0167C165.76 47.742 162.068 43.3024 147.576 41.5063C133.154 42.5892 128.747 47.3952 125.835 61.6109C128.051 74.1562 133.724 79.0847 142.965 81.7155Z" fill="black"/>
<path d="M196.329 82.364V95.3347H224V82.364H196.329Z" fill="black"/>
</svg>
