<svg width="54" height="30" viewBox="0 0 54 30" fill="none" xmlns="http://www.w3.org/2000/svg">
<path d="M29.7818 28.0503C30.0883 27.9122 30.3838 27.7635 30.6794 27.6042L53.151 14.9325C52.8555 15.0918 52.5599 15.2405 52.2534 15.3786C52.1549 15.4211 52.0454 15.4636 51.9469 15.5061C51.739 15.591 51.5201 15.676 51.3121 15.761C51.1479 15.8247 50.9728 15.8778 50.7976 15.9203C50.6882 15.9522 50.5897 15.984 50.4802 16.0159C50.2613 16.0796 50.0424 16.1221 49.8235 16.1752C49.7468 16.1965 49.6703 16.2071 49.5936 16.2284C49.5499 16.2284 49.4951 16.239 49.4513 16.2496C49.1011 16.3133 48.7399 16.3664 48.3787 16.3983C48.2473 16.4089 48.1159 16.4195 47.9846 16.4301C47.7438 16.4514 47.503 16.462 47.2512 16.462C47.1089 16.462 46.9666 16.462 46.8243 16.462C46.6164 16.462 46.4084 16.462 46.2004 16.4408C46.0472 16.4408 45.883 16.4302 45.7188 16.4195C45.5546 16.4089 45.3905 16.3877 45.2153 16.3664C45.0293 16.3452 44.8432 16.3239 44.6461 16.3027C44.4929 16.2814 44.3397 16.2602 44.1864 16.2284C43.9785 16.1965 43.7815 16.154 43.5735 16.1221C43.4312 16.0903 43.2779 16.0584 43.1356 16.0265C42.9167 15.9734 42.6978 15.9309 42.4789 15.8672C42.3476 15.8353 42.2162 15.7929 42.0849 15.761C41.8441 15.6973 41.6032 15.6229 41.3624 15.5485C41.242 15.5061 41.1326 15.4742 41.0122 15.4317C40.6619 15.3149 40.3007 15.1874 39.9395 15.0493C39.5783 14.9112 39.2171 14.7626 38.8559 14.5926C38.7464 14.5395 38.626 14.4864 38.5166 14.4333C38.2648 14.3164 38.0021 14.189 37.7394 14.0615C37.608 13.9978 37.4877 13.9341 37.3563 13.8703C37.017 13.6898 36.6667 13.5092 36.3165 13.318C36.1304 13.2118 35.9443 13.1056 35.7582 12.9994C35.5831 12.8931 35.397 12.7869 35.2219 12.6807C35.0796 12.5957 34.9373 12.5001 34.795 12.4151C34.6089 12.2983 34.4338 12.1815 34.2477 12.0646C34.1054 11.969 33.974 11.8841 33.8318 11.7885C33.6457 11.661 33.4486 11.5336 33.2626 11.3955C33.1312 11.2999 32.9889 11.2043 32.8576 11.1087C32.6605 10.96 32.4635 10.8219 32.2665 10.6732C32.1352 10.5776 32.0039 10.482 31.8834 10.3758C31.6645 10.2058 31.4456 10.0359 31.2267 9.85534C31.1172 9.77037 31.0078 9.6854 30.8983 9.5898C30.5809 9.32426 30.2635 9.05872 29.957 8.79318C29.957 8.79318 29.9351 8.77191 29.9241 8.77191C29.5957 8.48513 29.2783 8.19833 28.9609 7.90093C28.8624 7.80533 28.753 7.70975 28.6544 7.61415C28.4465 7.41234 28.2275 7.21052 28.0196 7.00871C27.8992 6.89187 27.7897 6.77505 27.6693 6.65821C27.4832 6.46702 27.2971 6.27582 27.1111 6.08463C26.9907 5.96779 26.8813 5.84032 26.7609 5.71286C26.5857 5.52167 26.3996 5.3305 26.2245 5.13931C26.115 5.01185 25.9946 4.89501 25.8851 4.76755C25.6991 4.55512 25.513 4.34269 25.3269 4.14087C25.2284 4.03466 25.1299 3.91782 25.0424 3.8116C24.7578 3.48233 24.4732 3.14243 24.1995 2.79192C24.1995 2.79192 24.1776 2.77067 24.1776 2.76005C23.8821 2.39891 23.5975 2.02715 23.3129 1.65539C23.1159 1.40047 22.9298 1.15617 22.7328 0.890625L0.2612 13.5623C0.41444 13.7747 0.578629 13.9872 0.742815 14.1996C0.775652 14.2421 0.808452 14.2846 0.841289 14.3271C1.12588 14.6988 1.41051 15.06 1.70605 15.4211C1.70605 15.4317 1.72789 15.4423 1.72789 15.453C2.00153 15.7929 2.28615 16.1328 2.57073 16.462C2.59263 16.4833 2.61451 16.5151 2.63641 16.5364C2.71303 16.6213 2.78967 16.7169 2.86629 16.8019C3.05237 17.0143 3.23846 17.2268 3.42453 17.4286C3.45737 17.4711 3.50113 17.5136 3.53396 17.5561C3.61058 17.641 3.68723 17.7154 3.76385 17.8003C3.93898 17.9915 4.1141 18.1827 4.30018 18.3739C4.35491 18.427 4.4096 18.4908 4.46433 18.5439C4.53 18.6076 4.59572 18.6713 4.65045 18.7351C4.83653 18.9262 5.02262 19.1174 5.20869 19.3086C5.27437 19.383 5.35099 19.4573 5.41667 19.521C5.46045 19.5635 5.51512 19.606 5.5589 19.6591C5.76687 19.8609 5.97486 20.0628 6.19377 20.2646C6.27039 20.3389 6.34703 20.4133 6.42365 20.4876C6.44555 20.5089 6.47839 20.5301 6.50028 20.5514C6.81771 20.8488 7.13514 21.1356 7.46351 21.4223C7.46351 21.4223 7.48537 21.4329 7.49632 21.4436C7.8028 21.7197 8.12021 21.9853 8.43763 22.2402C8.45952 22.2614 8.49237 22.2827 8.51426 22.304C8.60183 22.3677 8.67849 22.4314 8.76606 22.5057C8.98497 22.6757 9.20385 22.8563 9.41182 23.0262C9.46655 23.0687 9.51035 23.1112 9.56508 23.143C9.6417 23.2068 9.71828 23.2599 9.80585 23.313C10.0029 23.4617 10.1999 23.6104 10.397 23.7485C10.4626 23.8016 10.5393 23.8547 10.6049 23.8972C10.6706 23.9397 10.7363 23.9822 10.8019 24.0353C10.988 24.1733 11.185 24.3008 11.3711 24.4283C11.4586 24.4814 11.5353 24.5451 11.6229 24.6088C11.6776 24.6407 11.7323 24.6726 11.787 24.7151C11.9731 24.8319 12.1482 24.9487 12.3343 25.0656C12.4328 25.1293 12.5314 25.1931 12.6299 25.2568C12.6737 25.2886 12.7174 25.3099 12.7612 25.3311C12.9363 25.4373 13.1115 25.5436 13.2975 25.6498C13.407 25.7135 13.5165 25.7772 13.626 25.841C13.7026 25.8834 13.7792 25.9259 13.8558 25.9684C14.1075 26.1065 14.3593 26.2446 14.611 26.372C14.7096 26.4252 14.7971 26.4676 14.8956 26.5101C15.027 26.5739 15.1583 26.6376 15.2787 26.7013C15.3772 26.7544 15.4758 26.8075 15.5743 26.85C15.7385 26.9244 15.8917 26.9987 16.0449 27.0625C16.1544 27.1156 16.2748 27.1687 16.3842 27.2218C16.428 27.243 16.4828 27.2643 16.5265 27.2855C16.844 27.4236 17.1504 27.5511 17.4679 27.6679C17.7853 27.7954 18.1027 27.9016 18.4201 28.0184C18.4639 28.029 18.5078 28.0396 18.5406 28.0609C18.661 28.1034 18.7705 28.1352 18.8909 28.1671C19.055 28.2202 19.2083 28.2733 19.3725 28.3158C19.4491 28.337 19.5257 28.3583 19.6133 28.3795C19.7446 28.422 19.8759 28.4539 20.0073 28.4858C20.1167 28.5176 20.2262 28.5495 20.3248 28.5707C20.4342 28.6026 20.5437 28.6132 20.6531 28.6451C20.7954 28.6769 20.9486 28.7088 21.0909 28.7407C21.1675 28.7513 21.2442 28.7725 21.3098 28.7938C21.4412 28.815 21.5725 28.8363 21.7039 28.8575C21.8571 28.8788 22.0104 28.9106 22.1636 28.9319C22.2184 28.9319 22.273 28.9531 22.3278 28.9637C22.4591 28.985 22.5905 28.985 22.7328 29.0062C22.8969 29.0275 23.0611 29.0381 23.2253 29.0593C23.2691 29.0593 23.3239 29.07 23.3676 29.07C23.4771 29.07 23.5865 29.0699 23.7069 29.0806C23.9149 29.0806 24.1229 29.1018 24.3309 29.1018C24.3856 29.1018 24.4403 29.1018 24.4951 29.1018C24.5826 29.1018 24.6702 29.1018 24.7578 29.0912C24.9986 29.0912 25.2503 29.07 25.4911 29.0593C25.5677 29.0593 25.6444 29.0593 25.71 29.0593C25.7648 29.0593 25.8195 29.0381 25.8742 29.0381C26.2354 29.0062 26.5966 28.9531 26.9469 28.8894C26.9797 28.8894 27.0235 28.8894 27.0563 28.8787C27.0673 28.8787 27.0783 28.8787 27.0892 28.8787C27.1658 28.8681 27.2424 28.8469 27.319 28.8257C27.5379 28.7832 27.7569 28.7301 27.9758 28.6663C28.0853 28.6345 28.1838 28.6026 28.2932 28.5707C28.4246 28.5283 28.5559 28.4964 28.6872 28.4539C28.731 28.4433 28.7639 28.422 28.8077 28.4114C29.0266 28.3371 29.2345 28.2521 29.4425 28.1565C29.541 28.114 29.6505 28.0715 29.749 28.029L29.7818 28.0503Z" fill="url(#paint0_linear_170_814)"/>
<defs>
<linearGradient id="paint0_linear_170_814" x1="0.272146" y1="15.0281" x2="53.1401" y2="15.0281" gradientUnits="userSpaceOnUse">
<stop stop-color="#464951"/>
<stop offset="1" stop-color="#30343D"/>
</linearGradient>
</defs>
</svg>
