<svg width="34" height="29" viewBox="0 0 34 29" fill="none" xmlns="http://www.w3.org/2000/svg">
<path d="M33.8783 0.395203L11.4067 13.0669C11.2644 13.6617 11.1111 14.2353 10.9469 14.7982C10.9032 14.9363 10.8703 15.0744 10.8266 15.2125C10.6405 15.8285 10.4325 16.4233 10.2136 17.0075C10.126 17.2306 10.0385 17.443 9.95092 17.6554C9.88524 17.8148 9.81958 17.9847 9.7539 18.1441C9.65539 18.3777 9.54589 18.6008 9.43643 18.8345C9.37076 18.9725 9.30509 19.1212 9.23942 19.2593C9.20658 19.3337 9.16281 19.408 9.11903 19.493C8.95484 19.8329 8.77973 20.1622 8.59366 20.4808C8.51704 20.6189 8.44039 20.7463 8.36377 20.8738C8.21053 21.1287 8.0573 21.3943 7.89311 21.6386C7.7946 21.7873 7.70703 21.9254 7.60851 22.0741C7.48811 22.2546 7.3568 22.4352 7.2364 22.6158C7.12694 22.7645 7.02838 22.9132 6.91893 23.0513C6.78758 23.2212 6.65623 23.3911 6.51394 23.5611C6.40448 23.6992 6.29503 23.8373 6.17462 23.9754C6.03233 24.1453 5.89002 24.3046 5.74773 24.4639C5.62732 24.5914 5.51786 24.7189 5.39745 24.8463C5.24421 25.0057 5.09099 25.1544 4.93775 25.3031C4.81735 25.4199 4.69693 25.5367 4.57652 25.6536C4.41234 25.8023 4.2482 25.951 4.08402 26.0997C3.96362 26.2059 3.84319 26.3121 3.72279 26.4183C3.54766 26.567 3.36159 26.7051 3.18646 26.8432C3.06606 26.9388 2.94564 27.0344 2.82523 27.1194C2.61726 27.2681 2.40929 27.4061 2.20132 27.5549C2.09186 27.6292 1.99338 27.7036 1.89487 27.7673C1.57745 27.9691 1.26 28.1709 0.920685 28.3515L23.3922 15.6798C23.7206 15.4993 24.049 15.2974 24.3664 15.0956C24.4759 15.0319 24.5744 14.9575 24.6729 14.8832C24.8809 14.7451 25.0889 14.5964 25.2969 14.4477C25.4173 14.3627 25.5376 14.2671 25.658 14.1715C25.8441 14.0334 26.0192 13.8954 26.1944 13.7467C26.3148 13.6404 26.4352 13.5342 26.5556 13.428C26.7198 13.2793 26.884 13.1412 27.0482 12.9925C27.1686 12.8757 27.289 12.7588 27.4094 12.642C27.5626 12.4933 27.7158 12.334 27.8691 12.1746C27.9895 12.0472 28.099 11.9197 28.2194 11.7923C28.3616 11.633 28.504 11.4736 28.6463 11.3037C28.7557 11.1656 28.8761 11.0275 28.9856 10.8894C29.1169 10.7195 29.2592 10.5495 29.3906 10.3796C29.5 10.2309 29.6094 10.0928 29.708 9.94412C29.8393 9.76355 29.9597 9.58297 30.0801 9.4024C30.1349 9.32805 30.1895 9.25371 30.2333 9.17935C30.2771 9.11562 30.321 9.04126 30.3647 8.96691C30.5289 8.71199 30.6822 8.45707 30.8354 8.20215C30.912 8.07469 30.9886 7.93661 31.0652 7.80915C31.2513 7.4905 31.4265 7.1506 31.5907 6.81071C31.6235 6.74698 31.6563 6.68326 31.6891 6.61953C31.6891 6.6089 31.7001 6.59827 31.711 6.57703C31.7767 6.43895 31.8424 6.29024 31.9081 6.14154C32.0175 5.91848 32.116 5.69544 32.2145 5.46177C32.2802 5.30244 32.3459 5.13247 32.4116 4.97315C32.4882 4.78195 32.5757 4.59078 32.6524 4.38897C32.6524 4.36772 32.6633 4.34648 32.6743 4.32524C32.8932 3.74105 33.1012 3.14623 33.2872 2.53017C33.3091 2.46644 33.331 2.40272 33.3529 2.33899C33.3748 2.26464 33.3857 2.19027 33.4076 2.12654C33.5718 1.56359 33.736 0.979395 33.8673 0.395203H33.8783Z" fill="url(#paint0_linear_170_815)"/>
<defs>
<linearGradient id="paint0_linear_170_815" x1="0.909739" y1="14.3733" x2="33.8783" y2="14.3733" gradientUnits="userSpaceOnUse">
<stop stop-color="#30343D"/>
<stop offset="1" stop-color="#464951"/>
</linearGradient>
</defs>
</svg>
