<svg width="117" height="38" viewBox="0 0 117 38" fill="none" xmlns="http://www.w3.org/2000/svg">
<path d="M81.6824 36.975V32.4352V31.7867H70.4824C67.9901 30.6181 65.2118 27.8955 65.2118 24.6528C65.2118 21.4101 67.8554 16.88 73.7765 16.2218C77.6788 16.6382 79.5913 17.4993 81.6824 22.0587V31.7867H86.953V0.656982H81.6824V13.6277C78.3801 11.0864 76.2993 10.8319 72.4588 11.0336C63.4265 12.7343 59.9412 19.4645 59.9412 24.6528C59.9412 29.8411 63.34 34.6162 70.4824 36.975H81.6824Z" fill="black"/>
<path fill-rule="evenodd" clip-rule="evenodd" d="M94.8588 24.6528H116.6C114.803 14.5809 111.548 12.1193 103.424 11.0336C93.6963 11.8121 88.9294 21.4101 88.9294 24.6528C88.9294 27.8955 92.553 34.3973 98.8118 37.6235H110.671V32.4352H100.129C96.2209 30.2181 95.7319 28.453 94.861 25.3091L94.8588 25.3013V24.6528ZM109.353 20.113H96.8353V19.4645C98.5805 17.0994 99.9263 16.4798 102.765 16.2218C106.044 16.049 107.402 17.1061 109.353 20.113Z" fill="black"/>
<path d="M57.3059 11.0336H52.0353V12.9792C47.7957 11.0549 45.6766 10.4489 42.8118 11.0336C34.4977 12.5108 30.2941 19.4645 30.2941 24.0043C30.2941 28.544 33.3049 33.6444 40.1765 36.975H52.0353V31.7867H40.1765C37.3549 29.8744 36.1596 28.4737 35.5647 24.6528C36.8175 19.1641 38.2894 17.0315 42.8118 15.5733C47.9929 15.811 49.9153 17.0552 52.0353 20.7616V31.1382V31.7867H57.3059V11.0336Z" fill="black"/>
<path d="M23.0471 23.3557H27.6589C26.7952 14.2683 21.0706 9.73648 14.4824 9.73648C7.89417 9.73648 -0.0117121 16.2218 0.647111 23.3557C1.30593 30.4896 4.51415 33.5194 8.55299 35.6779H22.3883V31.1382H11.1883C7.1434 27.5099 6.26557 25.5336 6.57649 22.0587C7.67752 18.1279 9.87061 14.9248 14.4824 14.9248C19.0942 14.9248 21.5815 17.8684 23.0471 23.3557Z" fill="black"/>
</svg>
