<svg width="49" height="52" viewBox="0 0 49 52" fill="none" xmlns="http://www.w3.org/2000/svg">
<path d="M48.931 1.48486C48.9211 1.72787 48.9013 1.97088 48.8717 2.21389C48.8519 2.42885 48.8223 2.64382 48.7828 2.84944C48.7433 3.09244 48.7136 3.33546 48.6643 3.57847C48.6247 3.79344 48.5753 4.0084 48.526 4.22336C48.4667 4.45703 48.4074 4.70004 48.3482 4.9337C48.2889 5.14867 48.2198 5.36364 48.1506 5.57861C48.0716 5.81227 47.9926 6.04593 47.9037 6.27959C47.8247 6.48521 47.7358 6.70018 47.6568 6.9058C47.558 7.14881 47.4494 7.39182 47.3308 7.63482C47.2321 7.84044 47.1333 8.04607 47.0247 8.25169C46.8963 8.4947 46.7678 8.7377 46.6295 8.97136C46.5209 9.16763 46.4024 9.36391 46.2839 9.56019C46.1061 9.84993 45.9184 10.1397 45.7209 10.4201C45.6023 10.5976 45.4838 10.7659 45.3653 10.9435C45.1381 11.2612 44.8911 11.5697 44.6442 11.8875C44.5257 12.037 44.4171 12.1865 44.2985 12.3267C44.2393 12.3921 44.18 12.4576 44.1208 12.523C43.8541 12.8314 43.5775 13.1492 43.2812 13.4576C43.2021 13.5418 43.1231 13.6259 43.0441 13.71C42.6984 14.0652 42.3428 14.4203 41.9774 14.7661C41.9082 14.8316 41.8391 14.897 41.77 14.9531C41.4934 15.2148 41.1971 15.4671 40.9008 15.7195C40.6637 15.9251 40.4069 16.1307 40.16 16.3364C39.9328 16.5233 39.6957 16.7102 39.4587 16.8971C39.192 17.0934 38.9253 17.299 38.6487 17.4953C38.4018 17.6729 38.145 17.8598 37.8882 18.0374C37.6018 18.2337 37.3153 18.4206 37.019 18.6169C36.7523 18.7945 36.4758 18.972 36.1992 19.1403C35.893 19.3272 35.5769 19.5141 35.2608 19.7011C34.8658 19.9347 34.4805 20.159 34.0756 20.3927C33.3051 20.8133 32.5051 21.2152 31.6952 21.6077C31.4976 21.7012 31.2902 21.804 31.0927 21.8975C30.2828 22.2807 29.4531 22.6546 28.6135 23.0004C28.5937 23.0004 28.574 23.0191 28.5443 23.0284C27.7147 23.3742 26.8652 23.692 26.0158 24.0004C25.7985 24.0752 25.5812 24.1593 25.3639 24.2341C24.4848 24.5425 23.5959 24.8416 22.697 25.1127C22.5884 25.15 22.4698 25.1781 22.3612 25.2061C21.7488 25.3931 21.1265 25.5706 20.5043 25.7389C20.2475 25.8043 19.9808 25.8697 19.724 25.9351C19.24 26.0566 18.7462 26.1875 18.2622 26.2997C17.9659 26.3744 17.6695 26.4399 17.3633 26.5053C16.8991 26.6081 16.4349 26.7109 15.9707 26.8044C15.6546 26.8698 15.3385 26.9352 15.0224 26.9913C14.5582 27.0848 14.1038 27.1689 13.6396 27.253C13.3532 27.2997 13.0667 27.3558 12.7803 27.4025C11.8222 27.5614 10.8542 27.711 9.88626 27.8418C9.85662 27.8418 9.82703 27.8418 9.79739 27.8512C8.84918 27.9727 7.90095 28.0755 6.94286 28.1689C6.6663 28.197 6.3996 28.225 6.12304 28.2437C5.52052 28.2998 4.918 28.3465 4.31549 28.3839C4.0488 28.4026 3.78212 28.4213 3.51543 28.44C2.65612 28.4961 1.7968 28.5334 0.927606 28.5615L0.828857 51.1799C1.68818 51.1518 2.55737 51.1051 3.41669 51.0584C3.68337 51.0397 3.95006 51.021 4.22663 51.0023C4.82914 50.9649 5.42178 50.9182 6.02429 50.8621C6.17245 50.8528 6.32057 50.8434 6.4786 50.8247C6.60701 50.8154 6.72554 50.7967 6.85394 50.778C7.80215 50.6845 8.75037 50.5817 9.69859 50.4602C9.72822 50.4602 9.76776 50.4602 9.79739 50.4509C10.7654 50.32 11.7333 50.1705 12.6914 50.0116C12.8099 49.9929 12.9285 49.9742 13.047 49.9555C13.2149 49.9275 13.3828 49.8901 13.5606 49.862C14.0248 49.7779 14.4792 49.6938 14.9434 49.6097C15.2595 49.5443 15.5756 49.4882 15.8916 49.4227C16.3559 49.3293 16.8201 49.2265 17.2745 49.1236C17.5708 49.0582 17.8769 48.9928 18.1733 48.918C18.6671 48.7965 19.1511 48.675 19.6351 48.5535C19.8919 48.4881 20.1586 48.4227 20.4154 48.3573C21.0377 48.189 21.6599 48.0114 22.2723 47.8245C22.3711 47.7965 22.4798 47.7684 22.5785 47.7404H22.5982C23.5069 47.4693 24.3959 47.1703 25.275 46.8618C25.4923 46.7871 25.7096 46.7123 25.9269 46.6282C26.7862 46.3197 27.6356 45.9926 28.4653 45.6561C28.4851 45.6561 28.5048 45.6374 28.5246 45.6281C29.374 45.2823 30.1938 44.9084 31.0038 44.5252C31.2013 44.4318 31.4087 44.3383 31.6063 44.2355C32.4162 43.8429 33.2064 43.441 33.9867 43.0204C34.1941 42.9083 34.4114 42.7868 34.6189 42.6653C34.8164 42.5531 34.9843 42.441 35.1818 42.3288C35.4979 42.1419 35.814 41.9549 36.1202 41.768C36.3967 41.5998 36.6634 41.4222 36.94 41.2446C37.2363 41.0483 37.5228 40.8614 37.8092 40.6651C38.066 40.4875 38.3228 40.31 38.5698 40.1231C38.8463 39.9268 39.1129 39.7305 39.3796 39.5249C39.6167 39.3379 39.8538 39.151 40.0809 38.9641C40.3279 38.7584 40.5847 38.5622 40.8217 38.3566C40.9205 38.2724 41.0292 38.1883 41.1279 38.1042C41.3255 37.936 41.5033 37.7584 41.6909 37.5901C41.7601 37.5247 41.8292 37.4687 41.8984 37.4032C42.2737 37.0574 42.6292 36.7022 42.9651 36.3471C43.0441 36.263 43.1232 36.1788 43.2022 36.0947C43.4886 35.7863 43.775 35.4779 44.0417 35.1694C44.101 35.104 44.1602 35.0386 44.2195 34.9638C44.2491 34.9358 44.2788 34.8984 44.2985 34.8703C44.3973 34.7582 44.4763 34.6367 44.5652 34.5245C44.8121 34.2161 45.0591 33.8983 45.2961 33.5805C45.4245 33.403 45.5332 33.2347 45.6517 33.0571C45.8493 32.7674 46.0369 32.487 46.2147 32.1973C46.2641 32.1131 46.3233 32.0384 46.3727 31.9636C46.4419 31.8514 46.5011 31.7299 46.5604 31.6084C46.6987 31.3654 46.8271 31.1318 46.9555 30.8888C47.0642 30.6831 47.1629 30.4775 47.2617 30.2719C47.3802 30.0289 47.4889 29.7859 47.5877 29.5429C47.6371 29.4307 47.6864 29.3279 47.7358 29.2157C47.7753 29.1129 47.8049 29.0195 47.8444 28.9167C47.9333 28.683 48.0123 28.4493 48.0914 28.2157C48.1605 28.0007 48.2296 27.7857 48.2889 27.5708C48.3581 27.3371 48.4173 27.1035 48.4667 26.8605C48.4963 26.7296 48.5359 26.6081 48.5655 26.4772C48.5853 26.3931 48.5951 26.2997 48.605 26.2155C48.6544 25.9725 48.6939 25.7295 48.7235 25.4865C48.7531 25.2716 48.7828 25.0566 48.8124 24.851C48.8421 24.608 48.8519 24.3649 48.8717 24.1219C48.8717 23.9817 48.9013 23.8322 48.9013 23.692C48.9013 23.5518 48.9013 23.4023 48.9013 23.2621L49.0001 0.643677C49.0001 0.933416 48.9803 1.21382 48.9606 1.50356L48.931 1.48486Z" fill="#31317F"/>
</svg>
