<svg width="33" height="54" viewBox="0 0 33 54" fill="none" xmlns="http://www.w3.org/2000/svg">
<path d="M9.67187 53.8267L32.1435 41.155C31.8151 40.677 31.4977 40.199 31.1912 39.721C31.0927 39.5617 30.9942 39.3918 30.8847 39.2325C30.6877 38.9138 30.4907 38.5951 30.2937 38.2765C29.9434 37.6817 29.5931 37.0869 29.2648 36.4921C29.0021 36.0141 28.7394 35.5361 28.4985 35.0475C28.4767 35.005 28.4657 34.9732 28.4438 34.9307C28.2249 34.4952 28.006 34.0491 27.798 33.603C27.7323 33.4755 27.6776 33.348 27.6229 33.2206C27.4259 32.8063 27.2398 32.3815 27.0537 31.9672C27.0318 31.9035 26.999 31.8398 26.9661 31.776C26.7581 31.2981 26.5721 30.8201 26.3751 30.3421C26.3313 30.2146 26.2766 30.0978 26.2328 29.9703C26.0795 29.5773 25.9373 29.1843 25.795 28.7913C25.7512 28.6851 25.7183 28.5683 25.6745 28.4621C25.5103 27.9735 25.3462 27.4955 25.1929 27.0069C25.1601 26.9007 25.1273 26.7838 25.0944 26.6776C24.974 26.2952 24.8646 25.9022 24.7551 25.5199C24.7113 25.3712 24.6675 25.2118 24.6347 25.0631C24.5252 24.6595 24.4267 24.2665 24.3392 23.8735C24.3173 23.7779 24.2954 23.6823 24.2735 23.5867C24.1641 23.0981 24.0655 22.6201 23.967 22.1315C23.9451 22.0147 23.9232 21.8979 23.9013 21.7704C23.8357 21.388 23.77 21.0056 23.7153 20.6233C23.6934 20.4958 23.6715 20.3683 23.6606 20.2409C23.5949 19.7629 23.5401 19.2956 23.4963 18.8176C23.4963 18.7538 23.4963 18.7007 23.4854 18.637C23.4416 18.2228 23.4198 17.7979 23.3979 17.3836C23.3979 17.2562 23.3869 17.1287 23.376 17.0013C23.3541 16.5339 23.3431 16.0772 23.3431 15.6204C23.3431 15.1956 23.3541 14.7707 23.376 14.3565C23.376 14.2396 23.3869 14.1228 23.3979 14.006C23.4198 13.7192 23.4307 13.443 23.4635 13.1668C23.4745 13.0075 23.4964 12.8482 23.5183 12.6995C23.5401 12.4658 23.573 12.2321 23.6058 12.0091C23.6277 11.8391 23.6605 11.6692 23.6824 11.5099C23.7152 11.2974 23.7591 11.0956 23.7919 10.8832C23.8247 10.7026 23.8685 10.522 23.9013 10.3415C23.9451 10.1609 23.9889 9.96972 24.0327 9.78915C24.0874 9.57671 24.1422 9.36429 24.1969 9.16247C24.2407 9.00315 24.2845 8.84381 24.3392 8.68448C24.4158 8.42956 24.5033 8.18528 24.5909 7.9516C24.6347 7.82414 24.6785 7.69668 24.7332 7.56922C24.8865 7.1656 25.0616 6.77259 25.2477 6.40083C25.3681 6.14591 25.4994 5.90161 25.6308 5.66793C25.6527 5.63607 25.6636 5.59359 25.6855 5.56172C25.8387 5.28556 26.0139 5.02001 26.1781 4.75446C26.2109 4.71198 26.2437 4.65886 26.2765 4.61638C26.4079 4.41457 26.5502 4.22338 26.6925 4.04281C26.7472 3.96846 26.802 3.89411 26.8567 3.83038C26.988 3.66044 27.1194 3.50111 27.2617 3.35241C27.3164 3.28868 27.3712 3.23557 27.4259 3.17184C27.612 2.97003 27.809 2.76821 28.0169 2.57702C28.0388 2.55577 28.0717 2.53453 28.0936 2.51329C28.2687 2.34334 28.4548 2.18402 28.6518 2.03532C28.7175 1.98221 28.7831 1.92911 28.8488 1.876C29.0021 1.74854 29.1662 1.63169 29.3304 1.51485C29.3961 1.47236 29.4618 1.41926 29.5384 1.37678C29.7683 1.22807 29.9981 1.07937 30.2389 0.941284L7.76732 13.6129C7.52651 13.751 7.29664 13.8891 7.06678 14.0484C7.0011 14.0909 6.93543 14.144 6.85881 14.1865C6.69462 14.3034 6.53043 14.4202 6.37719 14.5477C6.31152 14.6008 6.24585 14.6539 6.18018 14.707C5.9941 14.8663 5.80801 15.0256 5.62193 15.185C5.60004 15.2062 5.56726 15.2275 5.54537 15.2487C5.34835 15.4399 5.15128 15.6417 4.95426 15.8435C4.89953 15.9072 4.84484 15.9603 4.79011 16.0241C4.64782 16.1834 4.51641 16.3427 4.38506 16.502C4.33033 16.5764 4.27564 16.6401 4.22091 16.7145C4.07862 16.9057 3.93632 17.0969 3.80497 17.2987C3.77213 17.3412 3.73927 17.3836 3.70643 17.4368C3.70643 17.4474 3.68458 17.458 3.68458 17.4686C3.5204 17.7129 3.36716 17.9785 3.21392 18.2334C3.19203 18.2652 3.17014 18.3077 3.14825 18.3502C3.02785 18.5733 2.89648 18.7963 2.78702 19.03C2.78702 19.0406 2.77606 19.0619 2.76511 19.0725C2.57903 19.4442 2.41489 19.8373 2.26165 20.2409C2.2507 20.2727 2.22877 20.3046 2.21782 20.3365C2.18499 20.4321 2.15219 20.5277 2.11935 20.6233C2.03178 20.8676 1.94417 21.1119 1.86755 21.3562C1.84566 21.4199 1.82377 21.4836 1.80188 21.5473C1.76904 21.6429 1.74714 21.7385 1.72525 21.8341C1.67052 22.0359 1.60489 22.2484 1.56111 22.4608C1.53922 22.5458 1.51733 22.6308 1.49544 22.7157C1.47354 22.8113 1.45166 22.9069 1.42976 23.0025C1.38598 23.1831 1.3531 23.3637 1.32027 23.5442C1.29837 23.6398 1.2765 23.7354 1.26555 23.831C1.24366 23.9479 1.23273 24.0647 1.21084 24.1709C1.18894 24.3408 1.1561 24.5002 1.13421 24.6701C1.12326 24.7551 1.10139 24.8401 1.09045 24.925C1.06856 25.0738 1.05757 25.2225 1.04662 25.3605C1.02473 25.5199 1.0138 25.6686 0.991907 25.8279C0.991907 25.8916 0.98094 25.9553 0.969995 26.0191C0.948103 26.2315 0.937181 26.4546 0.926236 26.667C0.926236 26.7838 0.904323 26.9007 0.904323 27.0175C0.904323 27.0494 0.904323 27.0706 0.904323 27.1025C0.893377 27.4636 0.882477 27.8354 0.882477 28.2071C0.882477 28.2284 0.882477 28.2496 0.882477 28.2709C0.882477 28.6108 0.882487 28.9613 0.893433 29.3118C0.893433 29.4286 0.904334 29.5455 0.915279 29.6623C0.915279 29.7898 0.926246 29.9172 0.937192 30.0447C0.937192 30.1722 0.937214 30.289 0.959105 30.4165C0.980996 30.7139 1.00283 31.0113 1.03567 31.2981C1.03567 31.3512 1.03568 31.4149 1.04662 31.468C1.04662 31.4893 1.04662 31.4999 1.04662 31.5211C1.07946 31.8929 1.12324 32.2753 1.17797 32.647C1.17797 32.732 1.19989 32.8063 1.21084 32.8913C1.23273 33.0188 1.24366 33.1462 1.26555 33.2737C1.28744 33.4436 1.30934 33.6136 1.34218 33.7835C1.37502 33.996 1.41877 34.2084 1.45161 34.4208C1.4735 34.5377 1.49539 34.6545 1.51728 34.782C1.52823 34.8351 1.5392 34.8988 1.55015 34.9519C1.62677 35.3449 1.71432 35.7379 1.80188 36.1415C1.80188 36.1734 1.81285 36.2053 1.82379 36.2371C1.84569 36.3327 1.86757 36.4283 1.88947 36.5239C1.95514 36.8001 2.02081 37.0763 2.08648 37.3524C2.11932 37.4799 2.15218 37.5967 2.18502 37.7242C2.22881 37.8729 2.26163 38.0216 2.30541 38.1703C2.33825 38.2977 2.37106 38.4358 2.41484 38.5633C2.49146 38.8182 2.5681 39.0731 2.64472 39.328C2.67756 39.4343 2.71036 39.5511 2.7432 39.6573C2.75414 39.6998 2.76512 39.7317 2.77607 39.7742C2.89647 40.1672 3.0278 40.5708 3.1701 40.9638C3.19199 41.0169 3.20292 41.0594 3.22481 41.1125C3.25765 41.2187 3.30148 41.3249 3.34527 41.4418C3.42189 41.6754 3.50943 41.8985 3.597 42.1322C3.66267 42.3021 3.72833 42.4614 3.78306 42.6314C3.82684 42.7589 3.88157 42.8757 3.92536 43.0032C3.95819 43.0881 3.99106 43.1731 4.0239 43.2581C4.16619 43.6298 4.31941 43.991 4.4836 44.3627C4.4836 44.384 4.50552 44.4052 4.51647 44.4265C4.54931 44.4902 4.57115 44.5539 4.60399 44.6176C4.72439 44.8938 4.84482 45.1806 4.97617 45.4568C5.04185 45.5948 5.10751 45.7329 5.17319 45.8816C5.22792 46.0091 5.29356 46.1365 5.34829 46.264C5.39207 46.3702 5.44681 46.4658 5.49059 46.572C5.65478 46.9119 5.82993 47.2518 5.99412 47.5917C6.01601 47.6342 6.02694 47.6661 6.04883 47.7086C6.04883 47.7086 6.04884 47.7298 6.05979 47.7298C6.28965 48.1759 6.53048 48.622 6.77129 49.0681C6.78223 49.1 6.8041 49.1212 6.81505 49.1531C7.14342 49.7585 7.49369 50.3534 7.84395 50.9376C7.86584 50.9694 7.87677 51.0013 7.89866 51.0331C8.0738 51.3199 8.24892 51.6067 8.43499 51.8935C8.53351 52.0528 8.63205 52.2228 8.74151 52.3821C9.04799 52.8707 9.36541 53.3487 9.69378 53.816L9.67187 53.8267Z" fill="url(#paint0_linear_170_807)"/>
<defs>
<linearGradient id="paint0_linear_170_807" x1="16.502" y1="48.5264" x2="16.502" y2="8.31273" gradientUnits="userSpaceOnUse">
<stop stop-color="#CDFE69"/>
<stop offset="1" stop-color="#79A819"/>
</linearGradient>
</defs>
</svg>
