<svg width="62" height="87" viewBox="0 0 62 87" fill="none" xmlns="http://www.w3.org/2000/svg">
<path d="M62 64.0168C62 63.9105 61.9892 63.8043 61.9892 63.7087C61.9892 63.4751 61.9672 63.2414 61.9563 63.0077C61.9453 62.7315 61.9344 62.4448 61.9125 62.1686C61.9016 61.9668 61.8797 61.765 61.8687 61.5738C61.8468 61.3295 61.8249 61.0746 61.803 60.8303C61.7921 60.6603 61.7812 60.4904 61.7593 60.3098C61.7264 59.9912 61.6827 59.6619 61.6498 59.3326C61.628 59.1095 61.6061 58.8971 61.5732 58.6741C61.5732 58.5891 61.5513 58.5147 61.5403 58.4298C61.4637 57.8243 61.3762 57.2295 61.2777 56.6241C61.2777 56.5922 61.2776 56.5603 61.2667 56.5179C61.2667 56.5179 61.2667 56.5179 61.2667 56.5072C61.1572 55.8593 61.0478 55.222 60.9164 54.5741C60.9055 54.4997 60.8836 54.4254 60.8727 54.351C60.8289 54.1067 60.7741 53.8731 60.7194 53.6288C60.6428 53.2782 60.5771 52.9277 60.5005 52.5772C60.4676 52.4391 60.4348 52.2904 60.402 52.1524C60.3363 51.8762 60.2707 51.6 60.205 51.3132C60.1393 51.0689 60.0846 50.814 60.0298 50.5697C59.9751 50.3573 59.9095 50.1342 59.8547 49.9218C59.7781 49.635 59.7015 49.3376 59.6248 49.0508C59.5811 48.8809 59.5373 48.7109 59.4825 48.5304C59.395 48.2329 59.2965 47.9249 59.2089 47.6275C59.1323 47.362 59.0447 47.0858 58.9681 46.8203C58.9353 46.714 58.9024 46.6078 58.8696 46.5122C58.7273 46.0555 58.5741 45.5988 58.4208 45.1527C58.3661 44.9827 58.3113 44.8021 58.2457 44.6322C58.2347 44.6003 58.2238 44.5685 58.2129 44.5366C57.9939 43.8887 57.7531 43.2408 57.5123 42.5928C57.4904 42.5504 57.4795 42.5079 57.4576 42.4548C57.3919 42.2848 57.3263 42.1149 57.2606 41.9449C57.1074 41.5307 56.9432 41.1164 56.779 40.7128C56.7242 40.5747 56.6585 40.4366 56.6038 40.2985C56.5053 40.0542 56.4068 39.8206 56.3083 39.5763C56.2098 39.332 56.1113 39.0983 56.0128 38.854C55.9033 38.5991 55.7829 38.3442 55.6734 38.0892C55.5749 37.8556 55.4764 37.6325 55.3669 37.3988C55.3122 37.2714 55.2575 37.1439 55.2028 37.0271C55.0058 36.5916 54.7978 36.1667 54.6008 35.7419C54.5242 35.5825 54.4475 35.4232 54.3709 35.2639C54.349 35.232 54.3381 35.1895 54.3162 35.1577C53.9988 34.4885 53.6704 33.83 53.331 33.1714C53.331 33.1502 53.3092 33.1289 53.2982 33.1077C53.0246 32.5766 52.74 32.0455 52.4444 31.5144C52.324 31.2807 52.2036 31.0577 52.0832 30.824C52.0832 30.824 52.0723 30.8028 52.0614 30.7921C52.0285 30.7284 51.9957 30.6753 51.9628 30.6116C51.6126 29.9849 51.2623 29.3688 50.9011 28.7528C50.7807 28.5403 50.6493 28.3279 50.518 28.1155C50.3647 27.8606 50.2115 27.595 50.0583 27.3401C49.9598 27.1702 49.8503 27.0108 49.7409 26.8409C49.5001 26.4585 49.2592 26.0761 49.0184 25.6937C48.7886 25.3432 48.5587 24.9821 48.3288 24.6316C48.0771 24.2598 47.8253 23.8774 47.5736 23.5057C47.4422 23.3039 47.3109 23.1021 47.1686 22.9002C47.0482 22.7197 46.9169 22.5497 46.7965 22.3692C46.6323 22.1355 46.4681 21.9018 46.3039 21.6681C45.9865 21.2326 45.6691 20.7971 45.3516 20.3617C45.1984 20.1492 45.0452 19.9368 44.881 19.735C44.8153 19.65 44.7605 19.565 44.6948 19.4907C44.5307 19.2676 44.3556 19.0552 44.1804 18.8427C43.8521 18.4179 43.5236 17.993 43.1843 17.5788C43.1077 17.4832 43.0311 17.3876 42.9545 17.292C42.7465 17.0371 42.5386 16.7928 42.3306 16.5485C42.0898 16.2617 41.8599 15.9749 41.6191 15.6881C41.5425 15.6031 41.4769 15.5182 41.4002 15.4332C41.1485 15.1358 40.8748 14.8384 40.6231 14.5516C40.426 14.3285 40.229 14.0949 40.032 13.8718C39.9882 13.8187 39.9444 13.7656 39.8897 13.7125C39.5176 13.3089 39.1454 12.9052 38.7732 12.5122C38.6419 12.3742 38.5215 12.2361 38.3902 12.1086C38.3792 12.098 38.3573 12.0767 38.3463 12.0661C37.81 11.5138 37.2737 10.9615 36.7264 10.4198C36.7264 10.4091 36.7045 10.3985 36.6935 10.3879C36.5512 10.2498 36.409 10.1117 36.2667 9.97365C35.8726 9.58065 35.4676 9.19826 35.0626 8.81588C35.0298 8.78401 34.997 8.75215 34.9641 8.72029C34.7343 8.50785 34.4934 8.29541 34.2526 8.08298C33.9462 7.80682 33.6396 7.52004 33.3332 7.24387C33.2784 7.20139 33.2237 7.1589 33.169 7.10579C32.9173 6.89335 32.6655 6.68093 32.4247 6.4685C32.1401 6.23482 31.8665 5.99052 31.5819 5.75684C31.5052 5.69311 31.4286 5.63999 31.352 5.57626C31.0893 5.36383 30.8266 5.16203 30.5749 4.96022C30.3231 4.75841 30.0714 4.55659 29.8196 4.35477C29.7211 4.28042 29.6116 4.20607 29.5022 4.1211C29.2504 3.92991 29.0096 3.74933 28.7579 3.56876C28.5389 3.40944 28.32 3.2395 28.1011 3.08018C27.9588 2.97396 27.8056 2.87835 27.6524 2.77214C27.4006 2.59157 27.1489 2.42163 26.8971 2.25169C26.722 2.13485 26.5468 2.00739 26.3717 1.89055C26.1637 1.75247 25.9449 1.62501 25.7369 1.48692C25.507 1.33822 25.2771 1.18951 25.0582 1.05143C24.9378 0.977079 24.8284 0.902736 24.708 0.828384C24.2483 0.541599 23.7885 0.26542 23.3288 -0.00012207L0.857178 12.6716C1.4373 13.0114 2.01746 13.362 2.59758 13.7231C2.82744 13.8718 3.05729 14.0099 3.27621 14.1586C3.65931 14.4135 4.05335 14.6684 4.43646 14.9233C4.68821 15.0933 4.93996 15.2739 5.19171 15.4438C5.56387 15.7094 5.93603 15.9749 6.29724 16.2404C6.549 16.421 6.78979 16.6016 7.04155 16.7928C7.40275 17.0689 7.76394 17.3451 8.11421 17.6319C8.3769 17.8337 8.63963 18.0461 8.89138 18.2479C9.25259 18.5453 9.60283 18.8427 9.96404 19.1402C10.2158 19.3526 10.4675 19.5544 10.7083 19.7775C11.0696 20.0961 11.4307 20.4254 11.792 20.744C12.0218 20.9565 12.2626 21.1689 12.4925 21.3813C12.9303 21.7956 13.3682 22.2098 13.806 22.6347C13.9483 22.7728 14.0906 22.9002 14.2219 23.0383C14.7911 23.6013 15.3603 24.1748 15.9185 24.759C16.0389 24.8865 16.1703 25.0246 16.2907 25.1626C16.7176 25.6088 17.1335 26.0655 17.5494 26.5222C17.7465 26.7453 17.9435 26.9683 18.1405 27.1914C18.4799 27.5738 18.8082 27.9562 19.1366 28.3385C19.3774 28.6253 19.6073 28.9121 19.8481 29.1989C20.1327 29.5388 20.4172 29.8893 20.7018 30.2398C21.0411 30.6541 21.3695 31.0789 21.6979 31.5038C21.9278 31.8012 22.1685 32.0986 22.3984 32.4066C22.5516 32.6085 22.7049 32.8209 22.8582 33.0333C23.1756 33.4688 23.493 33.9043 23.8104 34.3398C23.9746 34.5735 24.1387 34.8071 24.3029 35.0408C24.5656 35.4126 24.8283 35.795 25.0801 36.1773C25.3319 36.5491 25.5836 36.9209 25.8354 37.3032C26.0652 37.6538 26.2951 38.0149 26.5249 38.3654C26.7658 38.7478 27.0065 39.1302 27.2473 39.5126C27.51 39.9374 27.7728 40.3623 28.0245 40.7872C28.1449 40.9996 28.2763 41.212 28.3967 41.4244C28.7579 42.0405 29.1081 42.6566 29.4584 43.2832C29.4912 43.347 29.5241 43.4001 29.5569 43.4638C29.6883 43.6975 29.8087 43.9418 29.94 44.1755C30.2246 44.7066 30.5202 45.2376 30.7938 45.7793C31.166 46.491 31.5162 47.2133 31.8665 47.9249C31.9431 48.0843 32.0197 48.2436 32.0964 48.4029C32.3591 48.9552 32.6108 49.5075 32.8625 50.0599C32.961 50.2936 33.0705 50.5166 33.169 50.7503C33.3879 51.2389 33.5959 51.7381 33.8039 52.2373C33.9024 52.4816 34.0009 52.7153 34.0994 52.9596C34.3183 53.5119 34.5372 54.0643 34.7452 54.606C34.8109 54.7759 34.8765 54.9459 34.9422 55.1158C35.2159 55.8381 35.4785 56.571 35.7303 57.2932C35.785 57.4632 35.8398 57.6438 35.9054 57.8137C36.0915 58.366 36.2776 58.929 36.4527 59.4919C36.5403 59.7575 36.6169 60.0336 36.6935 60.2992C36.8358 60.7665 36.9671 61.2445 37.0985 61.7119C37.1751 61.9986 37.2627 62.2961 37.3393 62.5829C37.4597 63.0502 37.5802 63.5069 37.6896 63.9743C37.7553 64.2505 37.8209 64.5372 37.8866 64.8134C37.9961 65.302 38.1055 65.8012 38.204 66.2898C38.2588 66.5341 38.3135 66.7784 38.3573 67.0227C38.4996 67.745 38.6309 68.4673 38.7513 69.1895C38.7513 69.2214 38.7513 69.2639 38.7623 69.2957C38.8717 69.9862 38.9703 70.666 39.0578 71.3457C39.0907 71.5688 39.1126 71.7918 39.1345 72.0043C39.1892 72.5035 39.2439 72.9921 39.2876 73.4913C39.3095 73.7462 39.3314 73.9905 39.3533 74.2454C39.3862 74.7234 39.419 75.2014 39.4409 75.6794C39.4518 75.913 39.4628 76.1467 39.4738 76.3804C39.4957 77.0602 39.5175 77.7506 39.5175 78.4198C39.5175 79.0996 39.4957 79.7794 39.4628 80.4379C39.4628 80.6397 39.4409 80.8309 39.4299 81.0221C39.4081 81.4682 39.3753 81.9143 39.3315 82.3604C39.3096 82.626 39.2767 82.8915 39.2439 83.1464C39.2001 83.5076 39.1673 83.8793 39.1125 84.2298C39.0688 84.5273 39.025 84.8246 38.9812 85.1114C38.9155 85.5363 38.8498 85.9612 38.7732 86.3648L61.2448 73.6931C61.2776 73.5019 61.3214 73.3107 61.3543 73.1195C61.3981 72.8965 61.4199 72.6628 61.4637 72.4398C61.5075 72.1424 61.5622 71.8556 61.5951 71.5582C61.606 71.4626 61.6279 71.3776 61.6389 71.282C61.6717 71.0165 61.6936 70.7403 61.7264 70.4641C61.7592 70.1986 61.7812 69.9437 61.814 69.6781C61.814 69.6038 61.8359 69.54 61.8359 69.4657C61.8687 69.0939 61.8797 68.7222 61.9016 68.3504C61.9125 68.1592 61.9344 67.9574 61.9344 67.7662C61.9344 67.7344 61.9344 67.7025 61.9344 67.6706C61.9563 67.0758 61.9782 66.4704 61.9782 65.8543C61.9782 65.8224 61.9782 65.78 61.9782 65.7481C61.9782 65.1745 61.9782 64.601 61.9563 64.0168H62Z" fill="url(#paint0_linear_170_820)"/>
<defs>
<linearGradient id="paint0_linear_170_820" x1="0.857178" y1="43.177" x2="62.0219" y2="43.177" gradientUnits="userSpaceOnUse">
<stop stop-color="#5958E5"/>
<stop offset="1" stop-color="#31317F"/>
</linearGradient>
</defs>
</svg>
