<svg width="51" height="44" viewBox="0 0 51 44" fill="none" xmlns="http://www.w3.org/2000/svg">
<path d="M48.8626 26.2718C48.4181 26.2625 47.9638 26.2438 47.5193 26.2251C47.144 26.2064 46.7588 26.1971 46.3835 26.1784C45.9291 26.1503 45.4747 26.1223 45.0302 26.0942C44.6549 26.0662 44.2895 26.0475 43.9142 26.0195C43.4598 25.9821 43.0055 25.9353 42.5511 25.898C42.1856 25.8606 41.8202 25.8326 41.4646 25.7952C41.0003 25.7484 40.5361 25.683 40.0719 25.6269C39.7262 25.5802 39.3805 25.5428 39.0348 25.4961C38.4224 25.412 37.8199 25.3185 37.2075 25.225C37.0001 25.1876 36.7828 25.1596 36.5753 25.1315C35.7555 25.0007 34.9456 24.8512 34.1456 24.6923C34.0271 24.6736 33.9184 24.6455 33.7998 24.6175C33.0689 24.468 32.338 24.3184 31.617 24.1502C31.3306 24.0848 31.054 24.01 30.7676 23.9446C30.2145 23.8137 29.6613 23.6735 29.118 23.5333C28.8415 23.4585 28.5748 23.3838 28.2983 23.309C27.5279 23.094 26.7673 22.8697 26.0068 22.6361C25.8191 22.58 25.6314 22.5239 25.4437 22.4585C24.535 22.1687 23.6461 21.8603 22.7571 21.5332C22.3916 21.393 22.0262 21.2528 21.6607 21.1126C21.3743 21.0004 21.0879 20.8883 20.8014 20.7761C20.4063 20.6172 20.0113 20.449 19.626 20.2714C19.3692 20.1593 19.1026 20.0471 18.8458 19.9349C18.421 19.7387 18.0062 19.5424 17.5814 19.3461C17.3642 19.2433 17.1469 19.1498 16.9395 19.0377C16.3172 18.7292 15.7048 18.4115 15.1023 18.0843C8.25734 14.3458 3.73358 9.81275 1.53096 5.03672C0.800043 3.43848 0.316077 1.82154 0.0987783 0.185913L0 16.9628C0.879073 23.4866 5.86706 29.8702 14.9936 34.8612C15.5961 35.1883 16.2085 35.5061 16.8308 35.8145C17.0481 35.9174 17.2654 36.0202 17.4728 36.123C17.8877 36.3192 18.3025 36.5249 18.7272 36.7118C18.984 36.824 19.2507 36.9361 19.5174 37.0483C19.9026 37.2165 20.2977 37.3847 20.6928 37.5436C20.9792 37.6558 21.2657 37.7679 21.5521 37.8801C21.8484 37.9923 22.1447 38.1138 22.441 38.2259C22.5102 38.254 22.5793 38.2726 22.6485 38.3007C23.5275 38.6278 24.4264 38.9363 25.3351 39.226C25.5228 39.2821 25.7104 39.3382 25.8981 39.4036C26.6586 39.6372 27.4192 39.8616 28.1896 40.0765C28.3377 40.1139 28.476 40.1606 28.6143 40.198C28.7427 40.2354 28.8711 40.2634 28.9995 40.2915C29.5428 40.4317 30.0959 40.5719 30.649 40.7027C30.9256 40.7681 31.212 40.8429 31.4886 40.9083C32.2096 41.0766 32.9405 41.2261 33.6714 41.3757C33.7702 41.3944 33.8789 41.4224 33.9777 41.4411C33.9876 41.4411 34.0073 41.4411 34.0172 41.4411C34.8271 41.6 35.6371 41.7402 36.447 41.8804C36.6544 41.9178 36.8717 41.9458 37.0791 41.9738C37.6816 42.0673 38.294 42.1608 38.9064 42.2449C38.9558 42.2449 38.9953 42.2636 39.0446 42.2636C39.341 42.301 39.6472 42.3384 39.9534 42.3757C40.4176 42.4318 40.8818 42.4879 41.3461 42.544C41.7115 42.5814 42.077 42.6188 42.4326 42.6468C42.8869 42.6935 43.3412 42.7309 43.7956 42.7683C43.8746 42.7683 43.9537 42.787 44.0327 42.787C44.3191 42.8057 44.6154 42.8244 44.9117 42.8431C45.3661 42.8711 45.8204 42.9085 46.2649 42.9272C46.6402 42.9459 47.0255 42.9645 47.4008 42.9739C47.8453 42.9926 48.2996 43.0113 48.7441 43.0206C48.8527 43.0206 48.9713 43.03 49.0799 43.03C49.6528 43.0393 50.2356 43.0487 50.8085 43.058L50.9072 26.2812C50.2158 26.2812 49.5244 26.2625 48.833 26.2438L48.8626 26.2718Z" fill="#30343D"/>
</svg>
