<svg width="51" height="19" viewBox="0 0 51 19" fill="none" xmlns="http://www.w3.org/2000/svg">
<path d="M3.16399 14.5804C3.24061 14.5486 3.31719 14.5167 3.40476 14.4955C3.7003 14.3892 4.0068 14.2936 4.31328 14.198C4.5103 14.1343 4.7073 14.0706 4.90432 14.0175C5.19986 13.9325 5.50636 13.8688 5.81284 13.7944C5.99891 13.7519 6.185 13.6988 6.37108 13.667C6.81985 13.5714 7.27959 13.497 7.75025 13.4333C7.85971 13.4227 7.96915 13.412 8.07861 13.3908C8.4836 13.3377 8.88859 13.3058 9.30453 13.274C9.39209 13.274 9.47966 13.2633 9.57817 13.2527C10.0379 13.2315 10.4976 13.2208 10.9573 13.2208C11.3623 13.2208 11.7673 13.2421 12.1833 13.2633C12.3803 13.2633 12.5773 13.274 12.7743 13.2846C13.048 13.3058 13.3216 13.3377 13.5952 13.3696C13.9017 13.4014 14.2082 13.4227 14.5257 13.4652C14.7665 13.497 15.0072 13.5395 15.2481 13.582C15.5983 13.6351 15.9377 13.6882 16.2879 13.7519C16.4959 13.7944 16.7148 13.8475 16.9228 13.89C17.2949 13.9644 17.667 14.0494 18.0392 14.1449C18.2581 14.1981 18.488 14.2618 18.7069 14.3255C19.0791 14.4211 19.4403 14.5273 19.8124 14.6442C20.0313 14.7079 20.2612 14.7822 20.4802 14.8566C20.8633 14.9841 21.2463 15.1115 21.6294 15.2496C21.8374 15.3239 22.0454 15.3983 22.2643 15.4833C22.7131 15.6532 23.1728 15.8444 23.6325 16.0356C23.7748 16.0993 23.9171 16.1524 24.0485 16.2056C24.6505 16.4605 25.2525 16.7366 25.8545 17.034C26.0077 17.1084 26.15 17.1827 26.3033 17.2571C26.8506 17.5226 27.3869 17.7988 27.9342 18.0962L50.4058 5.42454C50.2087 5.31832 50.0227 5.21211 49.8257 5.11652C49.4754 4.93595 49.1251 4.766 48.7748 4.58543C48.6216 4.51108 48.4684 4.4261 48.3261 4.36237C48.2933 4.34113 48.2494 4.31988 48.2166 4.30926C47.6803 4.05434 47.144 3.81004 46.6186 3.57636C46.5857 3.56574 46.5529 3.55512 46.52 3.53388C46.3777 3.47015 46.2354 3.41704 46.1041 3.36393C45.7429 3.21523 45.3926 3.05591 45.0314 2.92845C44.9329 2.88597 44.8344 2.85409 44.7359 2.82223C44.5279 2.73726 44.3199 2.6629 44.101 2.58855C43.8821 2.5142 43.6632 2.41861 43.4443 2.34426C43.2801 2.29115 43.1159 2.23803 42.9517 2.18492C42.7328 2.11057 42.503 2.03622 42.284 1.97249C42.1417 1.93 41.9994 1.87689 41.8571 1.8344C41.6273 1.77067 41.4084 1.71757 41.1785 1.65384C40.9596 1.59011 40.7297 1.52638 40.5108 1.47327C40.4233 1.45203 40.3357 1.42017 40.2372 1.39893C39.9526 1.3352 39.6789 1.28209 39.3943 1.21836C39.1864 1.17587 38.9674 1.12276 38.7595 1.08027C38.7047 1.08027 38.6501 1.05903 38.6063 1.04841C38.3107 0.995302 38.0152 0.95281 37.7197 0.910323C37.4789 0.867837 37.238 0.825349 36.9972 0.793484C36.9644 0.793484 36.9316 0.782858 36.8878 0.772236C36.6142 0.740371 36.3405 0.719142 36.0559 0.687277C35.7823 0.655412 35.5086 0.623545 35.235 0.602302C35.2021 0.602302 35.1802 0.602302 35.1474 0.602302C34.9723 0.59168 34.8081 0.602297 34.6439 0.581054C34.2389 0.55981 33.823 0.538574 33.418 0.538574C33.3633 0.538574 33.3085 0.538574 33.2538 0.538574C32.8488 0.538574 32.4438 0.55981 32.0388 0.581054C31.9513 0.581054 31.8528 0.59168 31.7652 0.602302C31.5791 0.612923 31.404 0.623544 31.2179 0.634165C30.9881 0.655409 30.7691 0.687265 30.5393 0.708509C30.4298 0.719131 30.3203 0.729761 30.2109 0.751005C29.784 0.804113 29.3571 0.878467 28.9412 0.952819C28.9083 0.952819 28.8646 0.974051 28.8318 0.974051C28.6457 1.01654 28.4596 1.05904 28.2626 1.10152C27.9561 1.17587 27.6605 1.23959 27.354 1.32457C27.157 1.37768 26.96 1.4414 26.763 1.50513C26.566 1.56887 26.358 1.62197 26.161 1.6857C26.0625 1.71757 25.953 1.76005 25.8545 1.80254C25.7779 1.83441 25.7013 1.85565 25.6137 1.88752C25.1978 2.04684 24.7928 2.2168 24.3878 2.39737C24.3221 2.42923 24.2673 2.46108 24.2017 2.48233C23.7857 2.68414 23.3698 2.88596 22.9757 3.10902L0.504181 15.7807C0.909173 15.5576 1.31416 15.3452 1.7301 15.154C1.79577 15.1221 1.85048 15.0903 1.91616 15.069C2.32115 14.8885 2.72614 14.7185 3.14207 14.5592L3.16399 14.5804Z" fill="url(#paint0_linear_170_809)"/>
<defs>
<linearGradient id="paint0_linear_170_809" x1="0.515127" y1="9.33333" x2="50.4058" y2="9.33333" gradientUnits="userSpaceOnUse">
<stop stop-color="#CDFE69"/>
<stop offset="1" stop-color="#79A819"/>
</linearGradient>
</defs>
</svg>
