<svg width="116" height="91" viewBox="0 0 116 91" fill="none" xmlns="http://www.w3.org/2000/svg">
<path d="M31.9279 24.2453L17.9176 31.6625V46.4969L59.7114 68.739L73.732 61.3218V46.4969L31.9279 24.2453Z" fill="#BA75FF"/>
<path d="M73.732 46.4969L59.7114 53.9045L59.7114 68.739L73.732 61.3218V46.4969Z" fill="#FF8351"/>
<path d="M59.7114 53.9045L17.9176 31.6625V46.4969L59.7114 68.739L59.7114 53.9045Z" fill="#30343D"/>
<path d="M73.732 46.4969L59.7114 53.9045L59.7114 68.739L101.99 91L116 83.5922V68.7579L73.732 46.4969Z" fill="#F4F4F4"/>
<path d="M116 68.7579L101.99 76.175L101.99 91L116 83.5922V68.7579Z" fill="#F5F7F9"/>
<path d="M101.99 76.175L59.7114 53.9045L59.7114 68.739L101.99 91L101.99 76.175Z" fill="#E2E5E8"/>
<path d="M14.0102 0L-6.10352e-05 7.4172V22.2421L56.0412 51.9109L70.0618 44.4937V29.6593L14.0102 0Z" fill="#7EA8FC"/>
<path d="M70.0618 29.6593L56.0413 37.0766L56.0412 51.9109L70.0618 44.4937V29.6593Z" fill="#FF8351"/>
<path d="M56.0413 37.0766L-6.10352e-05 7.4172V22.2421L56.0412 51.9109L56.0413 37.0766Z" fill="#5958E5"/>
<path d="M31.7114 24.198L2.73195 8.86287C2.73195 8.86287 21.0413 18.8501 31.7114 24.198Z" fill="white"/>
<path d="M42.0207 14.8344L27.4846 7.13375L-6.10352e-05 7.4172L42.0207 29.6593V14.8344Z" fill="url(#paint0_linear_170_1194)" style="mix-blend-mode:multiply"/>
<path d="M70.0618 29.6593L56.0413 37.0766L56.0412 51.9109L84.0722 66.7359L98.0826 59.3187V44.4938L70.0618 29.6593Z" fill="#F4F4F4"/>
<path d="M98.0826 44.4938L84.0722 51.9109V66.7359L98.0826 59.3187V44.4938Z" fill="#F5F7F9"/>
<path d="M84.0722 51.9109L56.0413 37.0766L56.0412 51.9109L84.0722 66.7359V51.9109Z" fill="#E2E5E8"/>
<path d="M56.031 7.41718L42.0207 14.8344V29.6593L56.0413 37.0766L70.0618 29.6593L70.0619 14.8343L56.031 7.41718Z" fill="#B4E05A"/>
<path d="M70.0619 14.8343L56.0413 22.2421L56.0413 37.0766L70.0618 29.6593L70.0619 14.8343Z" fill="#CDFE69"/>
<path d="M56.0413 22.2421L42.0207 14.8344V29.6593L56.0413 37.0766L56.0413 22.2421Z" fill="#CDFE69"/>
<path d="M54.5052 21.4295C54.5052 21.4295 48.9176 18.2453 43.2269 15.4296C43.2269 15.4296 49.8454 18.9634 54.5052 21.4295Z" fill="white"/>
<path d="M70.0619 14.8343L56.0413 22.2421L56.0413 37.0766L70.0722 44.4937L84.0826 37.0765V22.2421L70.0619 14.8343Z" fill="#F4F4F4"/>
<path d="M84.0826 22.2421L70.0721 29.6593L70.0722 44.4937L84.0826 37.0765V22.2421Z" fill="#F5F7F9"/>
<path d="M70.0721 29.6593L56.0413 22.2421L56.0413 37.0766L70.0722 44.4937L70.0721 29.6593Z" fill="#E2E5E8"/>
<path d="M83.1547 22.7335C83.1547 22.7335 76.4433 26.0972 71.0722 29.1302C71.0722 29.1302 78.732 25.3791 83.1547 22.7335Z" fill="white"/>
<path d="M97.1238 45.004C97.1238 45.004 90.4124 48.3677 85.0413 51.4007C85.0413 51.4007 92.7011 47.6496 97.1238 45.004Z" fill="white"/>
<path d="M115.031 69.2587C115.031 69.2587 108.32 72.6224 102.949 75.6554C102.949 75.6554 110.608 71.9043 115.031 69.2587Z" fill="white"/>
<defs>
<linearGradient id="paint0_linear_170_1194" x1="39.9283" y1="7.9396" x2="230.266" y2="78.8947" gradientUnits="userSpaceOnUse">
<stop stop-color="white"/>
<stop offset="0.61" stop-color="#7EA8FC"/>
</linearGradient>
</defs>
</svg>
